<svg width="28" height="28" viewBox="0 0 28 28" fill="none" xmlns="http://www.w3.org/2000/svg">
<path d="M2.33301 14.0001C2.33246 14.2232 2.39591 14.4419 2.51585 14.63C2.63578 14.8182 2.80717 14.968 3.00968 15.0618L13.043 19.6234C13.3454 19.7604 13.6736 19.8312 14.0055 19.8312C14.3375 19.8312 14.6656 19.7604 14.968 19.6234L24.978 15.0734C25.1845 14.9806 25.3596 14.8297 25.4818 14.6391C25.604 14.4485 25.6681 14.2265 25.6663 14.0001M2.33301 19.8334C2.33246 20.0566 2.39591 20.2752 2.51585 20.4634C2.63578 20.6515 2.80717 20.8014 3.00968 20.8951L13.043 25.4568C13.3454 25.5937 13.6736 25.6645 14.0055 25.6645C14.3375 25.6645 14.6656 25.5937 14.968 25.4568L24.978 20.9068C25.1845 20.8139 25.3596 20.663 25.4818 20.4724C25.604 20.2819 25.6681 20.0598 25.6663 19.8334M14.968 2.54342C14.664 2.40476 14.3338 2.33301 13.9997 2.33301C13.6656 2.33301 13.3353 2.40476 13.0313 2.54342L3.03301 7.09342C2.82599 7.18471 2.64997 7.33422 2.5264 7.52376C2.40283 7.71329 2.33704 7.93467 2.33704 8.16092C2.33704 8.38718 2.40283 8.60856 2.5264 8.79809C2.64997 8.98763 2.82599 9.13714 3.03301 9.22842L13.043 13.7901C13.347 13.9287 13.6772 14.0005 14.0113 14.0005C14.3455 14.0005 14.6757 13.9287 14.9797 13.7901L24.9897 9.24009C25.1967 9.14881 25.3727 8.99929 25.4963 8.80976C25.6199 8.62022 25.6856 8.39885 25.6856 8.17259C25.6856 7.94633 25.6199 7.72496 25.4963 7.53542C25.3727 7.34589 25.1967 7.19638 24.9897 7.10509L14.968 2.54342Z" stroke="#334155" stroke-width="2.33333" stroke-linecap="round" stroke-linejoin="round"/>
</svg>
