<svg width="28" height="28" viewBox="0 0 28 28" fill="none" xmlns="http://www.w3.org/2000/svg">
<path d="M23.3333 12.8333V19.8333M23.3333 19.8333C22.0447 19.8333 21 20.878 21 22.1667C21 23.4553 22.0447 24.5 23.3333 24.5C24.622 24.5 25.6667 23.4553 25.6667 22.1667C25.6667 20.878 24.622 19.8333 23.3333 19.8333ZM23.3333 15.1667H25.6667M3.5 24.5V22.1667C3.5 20.929 3.99167 19.742 4.86683 18.8668C5.742 17.9917 6.92899 17.5 8.16667 17.5H15.1667C16.0189 17.4998 16.8549 17.733 17.584 18.1743M16.3333 8.16667C16.3333 10.744 14.244 12.8333 11.6667 12.8333C9.08934 12.8333 7 10.744 7 8.16667C7 5.58934 9.08934 3.5 11.6667 3.5C14.244 3.5 16.3333 5.58934 16.3333 8.16667Z" stroke="#334155" stroke-width="2.33333" stroke-linecap="round" stroke-linejoin="round"/>
</svg>
