<svg width="24" height="24" viewBox="0 0 24 24" fill="none" xmlns="http://www.w3.org/2000/svg">
<path d="M12 3C10.1435 3 8.36301 3.75857 7.05025 5.10882C5.7375 6.45908 5 8.29042 5 10.2C5 15.06 11.1688 20.5499 11.4313 20.7839C11.5897 20.9234 11.7914 21 12 21C12.2086 21 12.4103 20.9234 12.5687 20.7839C12.875 20.5499 19 15.06 19 10.2C19 8.29042 18.2625 6.45908 16.9497 5.10882C15.637 3.75857 13.8565 3 12 3ZM12 18.8849C10.1363 17.085 6.75 13.206 6.75 10.2C6.75 8.76781 7.30312 7.39431 8.28769 6.38161C9.27226 5.36892 10.6076 4.79999 12 4.79999C13.3924 4.79999 14.7277 5.36892 15.7123 6.38161C16.6969 7.39431 17.25 8.76781 17.25 10.2C17.25 13.206 13.8638 17.094 12 18.8849ZM12 6.59999C11.3078 6.59999 10.6311 6.81112 10.0555 7.2067C9.47993 7.60227 9.03133 8.16451 8.76642 8.82232C8.50151 9.48013 8.4322 10.204 8.56725 10.9023C8.7023 11.6006 9.03564 12.2421 9.52513 12.7456C10.0146 13.249 10.6383 13.5919 11.3172 13.7308C11.9961 13.8697 12.6999 13.7984 13.3394 13.5259C13.9789 13.2535 14.5256 12.792 14.9101 12.2C15.2947 11.608 15.5 10.912 15.5 10.2C15.5 9.2452 15.1313 8.32953 14.4749 7.6544C13.8185 6.97927 12.9283 6.59999 12 6.59999ZM12 12C11.6539 12 11.3155 11.8944 11.0278 11.6966C10.74 11.4988 10.5157 11.2177 10.3832 10.8888C10.2508 10.5599 10.2161 10.198 10.2836 9.84881C10.3511 9.49965 10.5178 9.17892 10.7626 8.92719C11.0073 8.67546 11.3191 8.50402 11.6586 8.43457C11.9981 8.36512 12.3499 8.40076 12.6697 8.537C12.9895 8.67324 13.2628 8.90395 13.4551 9.19995C13.6474 9.49596 13.75 9.84397 13.75 10.2C13.75 10.6774 13.5656 11.1352 13.2374 11.4728C12.9092 11.8103 12.4641 12 12 12Z" fill="#334155"/>
</svg>
