<svg width="18" height="22" viewBox="0 0 18 22" fill="none" xmlns="http://www.w3.org/2000/svg">
<path d="M11 1H3C2.46957 1 1.96086 1.21072 1.58579 1.58579C1.21071 1.96086 1 2.46957 1 3V19C1 19.5304 1.21071 20.0391 1.58579 20.4142C1.96086 20.7893 2.46957 21 3 21H15C15.5304 21 16.0391 20.7893 16.4142 20.4142C16.7893 20.0391 17 19.5304 17 19V7M11 1C11.3166 0.99949 11.6301 1.06161 11.9225 1.18277C12.215 1.30394 12.4806 1.48176 12.704 1.706L16.292 5.294C16.5168 5.51751 16.6952 5.78335 16.8167 6.07617C16.9382 6.36898 17.0005 6.68297 17 7M11 1L11 6C11 6.26522 11.1054 6.51957 11.2929 6.70711C11.4804 6.89465 11.7348 7 12 7L17 7M7 8H5M13 12H5M13 16H5" stroke="#7777F2" stroke-width="2" stroke-linecap="round" stroke-linejoin="round"/>
</svg>
