<svg width="13" height="13" viewBox="0 0 13 13" fill="none" xmlns="http://www.w3.org/2000/svg">
<path d="M12.1656 4.99273L7.71105 0.538187C7.34687 0.192636 6.86398 0 6.36196 0C5.85993 0 5.37704 0.192636 5.01287 0.538187L0.55832 4.99273C0.20081 5.35069 0 5.83591 0 6.34182C0 6.84773 0.20081 7.33296 0.55832 7.69091L5.01287 12.1455C5.37082 12.503 5.85605 12.7038 6.36196 12.7038C6.86787 12.7038 7.35309 12.503 7.71105 12.1455L12.1656 7.69091C12.5231 7.33296 12.7239 6.84773 12.7239 6.34182C12.7239 5.83591 12.5231 5.35069 12.1656 4.99273ZM11.2683 6.79364L6.81378 11.2482C6.75462 11.3078 6.68423 11.3552 6.60669 11.3875C6.52914 11.4198 6.44596 11.4364 6.36196 11.4364C6.27795 11.4364 6.19477 11.4198 6.11723 11.3875C6.03968 11.3552 5.9693 11.3078 5.91014 11.2482L1.45559 6.79364C1.39595 6.73448 1.34861 6.6641 1.3163 6.58655C1.28399 6.50901 1.26736 6.42583 1.26736 6.34182C1.26736 6.25782 1.28399 6.17464 1.3163 6.09709C1.34861 6.01955 1.39595 5.94916 1.45559 5.89001L5.91014 1.43546C5.9693 1.37581 6.03968 1.32847 6.11723 1.29616C6.19477 1.26386 6.27795 1.24722 6.36196 1.24722C6.44596 1.24722 6.52914 1.26386 6.60669 1.29616C6.68423 1.32847 6.75462 1.37581 6.81378 1.43546L11.2683 5.89001C11.328 5.94916 11.3753 6.01955 11.4076 6.09709C11.4399 6.17464 11.4566 6.25782 11.4566 6.34182C11.4566 6.42583 11.4399 6.50901 11.4076 6.58655C11.3753 6.6641 11.328 6.73448 11.2683 6.79364ZM7.76832 4.61728C7.64849 4.49745 7.48597 4.43013 7.3165 4.43013C7.14704 4.43013 6.98451 4.49745 6.86468 4.61728C6.74485 4.73711 6.67754 4.89963 6.67754 5.0691C6.67754 5.23856 6.74485 5.40108 6.86468 5.52091L7.05559 5.70546H4.77105C4.60227 5.70546 4.44041 5.77251 4.32107 5.89185C4.20173 6.01119 4.13468 6.17305 4.13468 6.34182V7.61455C4.13468 7.78332 4.20173 7.94519 4.32107 8.06453C4.44041 8.18387 4.60227 8.25091 4.77105 8.25091C4.93982 8.25091 5.10168 8.18387 5.22102 8.06453C5.34037 7.94519 5.40741 7.78332 5.40741 7.61455V6.97819H7.05559L6.86468 7.16273C6.80504 7.22189 6.7577 7.29227 6.72539 7.36982C6.69308 7.44737 6.67645 7.53054 6.67645 7.61455C6.67645 7.69856 6.69308 7.78173 6.72539 7.85928C6.7577 7.93683 6.80504 8.00721 6.86468 8.06637C6.92384 8.12601 6.99423 8.17336 7.07177 8.20566C7.14932 8.23797 7.23249 8.2546 7.3165 8.2546C7.40051 8.2546 7.48369 8.23797 7.56123 8.20566C7.63878 8.17336 7.70916 8.12601 7.76832 8.06637L9.04105 6.79364C9.10069 6.73448 9.14804 6.6641 9.18034 6.58655C9.21265 6.50901 9.22928 6.42583 9.22928 6.34182C9.22928 6.25782 9.21265 6.17464 9.18034 6.09709C9.14804 6.01955 9.10069 5.94916 9.04105 5.89001L7.76832 4.61728Z" fill="white"/>
</svg>
